<?xml version="1.0" encoding="UTF-8" standalone="no"?>
<!-- Generator: Adobe Illustrator 26.3.1, SVG Export Plug-In . SVG Version: 6.00 Build 0)  -->

<svg
   version="1.1"
   id="svg3855"
   x="0px"
   y="0px"
   viewBox="0 0 478.3 564.70002"
   xml:space="preserve"
   sodipodi:docname="Brazil.svg"
   width="478.29999"
   height="564.70001"
   inkscape:version="1.1.2 (b8e25be833, 2022-02-05)"
   xmlns:inkscape="http://www.inkscape.org/namespaces/inkscape"
   xmlns:sodipodi="http://sodipodi.sourceforge.net/DTD/sodipodi-0.dtd"
   xmlns="http://www.w3.org/2000/svg"
   xmlns:svg="http://www.w3.org/2000/svg"><defs
   id="defs874" />
<style
   type="text/css"
   id="style850">
	.st0{fill-rule:evenodd;clip-rule:evenodd;fill:#19AE47;}
	.st1{fill:#005AFF;}
	.st2{fill:#FFFFFF;}
	.st3{fill:#1F1960;}
	.st4{fill:#029C55;}
	.st5{fill:#FFD200;}
</style>
<sodipodi:namedview
   bordercolor="#666666"
   borderopacity="1.0"
   id="base"
   inkscape:current-layer="layer1"
   inkscape:cx="135.35714"
   inkscape:cy="280"
   inkscape:document-units="mm"
   inkscape:pageopacity="0.0"
   inkscape:pageshadow="2"
   inkscape:window-height="1017"
   inkscape:window-maximized="1"
   inkscape:window-width="1920"
   inkscape:window-x="-8"
   inkscape:window-y="-8"
   inkscape:zoom="1.4"
   pagecolor="#ffffff"
   showgrid="false"
   inkscape:pagecheckerboard="0">
	</sodipodi:namedview>
<g
   id="layer1"
   transform="translate(-56.9,-198.1)"
   inkscape:label="Layer 1"
   inkscape:groupmode="layer">
	
	
	
	
	
	<path
   id="path3716"
   inkscape:connector-curvature="0"
   class="st1"
   d="M 296.1,721.3 C 266,694.4 236.6,682.5 212,672.6 183.6,661.1 163.1,652.8 146.5,625.2 135.3,606.6 129.4,584.8 129.4,562.1 V 398.8 c 0,-22.5 -4.9,-44.1 -14.6,-64.3 -1.5,-3.1 -3.2,-6.2 -4.9,-9.2 34.5,-12.2 58.9,-32.7 81.2,-51.4 31.2,-26.2 55.8,-46.9 105.1,-46.9 49.1,0 74.9,21.6 102.2,44.5 l 2.8,2.3 c 22.3,18.7 46.6,39.2 81.2,51.4 -12.6,22.1 -19.5,47.3 -19.5,73.5 v 163.2 c 0,22.7 -5.9,44.5 -17.1,63.1 -15.8,26.3 -33.8,34.5 -64.2,46.8 l -1.4,0.6 c -24.7,10.1 -54.1,22 -84.1,48.9" />
	<path
   id="path3718"
   inkscape:connector-curvature="0"
   class="st2"
   d="M 417.7,376.4 V 536 h -1.4 l -31.9,-32.1 c -4.5,-4.5 -10.6,-7 -16.9,-7 h -30.6 v 30.6 c 0,6.3 2.5,12.4 7,16.9 l 32.1,32 v 1.4 H 216.3 v -1.4 l 32.1,-32 c 4.4,-4.5 7,-10.6 7,-16.9 v -30.6 h -30.7 c -6.3,0 -12.4,2.5 -16.9,7 l -32,32.1 h -1.4 V 376.3 h 1.4 l 32,32.1 c 4.5,4.5 10.6,7 16.9,7 h 30.7 v -30.6 c 0,-6.3 -2.5,-12.4 -7,-16.9 l -32.1,-32 v -1.4 h 159.6 v 1.4 l -32.1,32 c -4.5,4.5 -7,10.6 -7,16.9 v 30.6 h 30.6 c 6.3,0 12.4,-2.5 16.9,-7 l 31.9,-32.1 h 1.5 z" />
	<path
   id="path3720"
   inkscape:connector-curvature="0"
   class="st3"
   d="m 234.1,459.9 c 0,2.5 0.2,4.6 0.5,6.2 0.3,1.6 0.9,2.9 1.8,3.8 0.9,0.9 2.1,1.6 3.7,2 1.6,0.4 3.6,0.5 6,0.5 h 7.3 c 1.2,0 2.6,0 4.2,-0.1 1.6,0 3.5,-0.1 5.8,-0.1 l -2.5,13.8 c -1.9,0.1 -3.5,0.1 -4.8,0.1 -1.3,0 -2.5,0.1 -3.5,0.1 h -7.5 c -5.1,0 -9.4,-0.5 -12.9,-1.4 -3.5,-0.9 -6.4,-2.4 -8.6,-4.4 -2.2,-2.1 -3.8,-4.8 -4.8,-8.1 -1,-3.4 -1.5,-7.6 -1.5,-12.5 v -7.5 c 0,-4.8 0.5,-8.8 1.5,-12.2 1,-3.4 2.7,-6.1 4.9,-8.1 2.2,-2.1 5.1,-3.6 8.6,-4.6 3.5,-0.9 7.8,-1.4 12.8,-1.4 h 7.6 c 1.3,0 2.7,0 4.4,0.1 1.7,0 3.7,0.1 6,0.1 l -2.5,13.8 c -2.7,-0.1 -5,-0.2 -6.8,-0.2 h -7.5 c -2.5,0 -4.5,0.2 -6,0.5 -1.6,0.4 -2.8,1 -3.7,2 -0.9,0.9 -1.5,2.2 -1.8,3.8 -0.3,1.6 -0.5,3.7 -0.5,6.2 z" />
	<path
   id="path3722"
   inkscape:connector-curvature="0"
   class="st3"
   d="m 286.9,473.8 h 12.8 c 2.6,0 4.4,-0.4 5.5,-1.2 1.1,-0.8 1.6,-2.3 1.6,-4.6 v -1.1 c 0,-2.3 -0.5,-3.9 -1.6,-4.7 -1.1,-0.8 -3,-1.2 -5.7,-1.2 h -12.6 z m 18.2,-30.3 c 0,-1.8 -0.4,-3.1 -1.4,-3.8 -0.9,-0.8 -2.4,-1.1 -4.6,-1.1 h -12.2 v 11 h 12 c 2.3,0 3.9,-0.4 4.8,-1.2 0.9,-0.8 1.4,-2.1 1.4,-4 z m -33.3,-17.3 h 30.5 c 6.4,0 11,1.3 13.9,3.7 2.9,2.5 4.4,6.2 4.4,11.2 v 1.1 c 0,5.8 -2.3,9.8 -7,12.1 2.8,1.1 5,2.7 6.5,4.9 1.5,2.2 2.3,5.1 2.3,8.7 v 1.5 c 0,5.9 -1.7,10.1 -5.3,12.7 -3.5,2.6 -8.8,3.9 -15.9,3.9 h -29.4 z" />
	<path
   id="path3724"
   inkscape:connector-curvature="0"
   class="st3"
   d="m 374.8,426.2 -2.4,13.1 h -27 V 451 H 371 l -2.3,12.7 h -23.2 v 22.4 h -15.8 v -59.8 h 45.1 z" />
	<path
   id="path3726"
   inkscape:connector-curvature="0"
   class="st4"
   d="m 174.4,456.2 h -37.6 v -40.8 h 37.6 z" />
	<path
   id="path3728"
   inkscape:connector-curvature="0"
   class="st4"
   d="m 417.7,456.2 h 37.7 V 497 h -37.7 z" />
	<path
   id="path3730"
   inkscape:connector-curvature="0"
   class="st5"
   d="m 455.3,562.1 c 0,21.3 -5.5,41.8 -16,59.2 -15.3,25.5 -33.9,33 -62,44.4 -12.3,5 -26,10.5 -40.6,18.3 V 577.8 H 296 v 133.6 c -29.3,-24.8 -58,-36.3 -81.2,-45.8 -28.1,-11.4 -46.7,-18.8 -62,-44.4 -10.5,-17.4 -16,-37.9 -16,-59.2 v -65.2 h 37.6 V 456 h -37.6 v -57.3 c 0,-24.2 -5.7,-48.1 -16.4,-69.5 31.6,-12.9 54.8,-32.3 75.4,-49.7 20.5,-17.2 37.3,-31.2 59.5,-38.8 v 93.7 H 296 v -99.9 c 46.6,0 69.1,18.9 100.3,45.1 20.6,17.4 43.8,36.8 75.4,49.7 -10.7,21.4 -16.4,45.3 -16.4,69.5 v 16.6 h -37.6 v 40.8 h 37.6 z m 36.4,-146.7 h -29 v -16.6 c 0,-26.2 6.9,-51.4 19.5,-73.5 C 447.7,313.1 423.3,292.6 401.1,273.9 369.9,247.7 345.3,227.1 296,227.1 v -29 c -15.3,0 -28.7,1.8 -40.8,4.8 V 233 c -24.9,7.9 -43.1,23.2 -64.3,41 -22.3,18.7 -46.7,39.2 -81.2,51.4 12.7,22.1 19.5,47.3 19.5,73.5 v 57.3 H 100.3 V 497 h 28.9 v 65.2 c 0,22.7 5.9,44.5 17.1,63.1 16.6,27.6 37.2,36 65.5,47.4 24.6,10 54,21.8 84.1,48.8 v 41.3 c 13.7,-15.9 27.4,-27.4 40.8,-36.3 v -33.9 c 15.4,-8.5 30.1,-14.5 43.3,-19.9 28.4,-11.4 48.9,-19.8 65.5,-47.4 11.2,-18.6 17.1,-40.4 17.1,-63.1 v -106 h 29 z" />
	<path
   id="path3732"
   inkscape:connector-curvature="0"
   class="st4"
   d="m 336.8,240.8 c -11.6,-4 -24.8,-6.3 -40.8,-6.3 v 99.9 h 40.8 z" />
	<path
   id="path3734"
   inkscape:connector-curvature="0"
   class="st4"
   d="m 255.3,684 c 13.1,7 26.8,15.7 40.7,27.5 V 577.8 h -40.7 z" />
	<path
   id="path3736"
   inkscape:connector-curvature="0"
   class="st3"
   d="m 296.1,227.2 c 49.2,0 73.9,20.7 105,46.8 22.3,18.7 46.6,39.2 81.1,51.4 -12.6,22.1 -19.5,47.3 -19.5,73.5 v 16.6 h 29 v -16.6 c 0,-37 17,-70.1 43.5,-92 -56.4,-4.1 -87.1,-31.3 -118.3,-57.4 -31.2,-26.2 -62.8,-51.3 -120.8,-51.3 v 0 z" />
	<path
   id="path3738"
   inkscape:connector-curvature="0"
   class="st3"
   d="m 129.3,398.8 c 0,-26.2 -6.8,-51.4 -19.5,-73.5 34.5,-12.2 58.9,-32.7 81.2,-51.4 21.2,-17.8 39.4,-33 64.3,-41 V 203 c -79.8,20 -100.5,96.7 -198.4,103.9 13.3,10.9 24.1,24.6 31.7,40.3 7.6,15.6 11.8,33.1 11.8,51.7 v 57.3 h 28.9 z" />
	<path
   id="path3740"
   inkscape:connector-curvature="0"
   class="st3"
   d="M 211.9,672.5 C 183.5,661 163,652.7 146.4,625.1 135.2,606.5 129.3,584.7 129.3,562 V 496.8 H 100.4 V 562 c 0,27.4 7.1,54.5 21.2,78 42.6,70.8 107.6,45.1 174.4,122.5 v -41.3 c -30.1,-26.9 -59.5,-38.7 -84.1,-48.7" />
	<path
   id="path3742"
   inkscape:connector-curvature="0"
   class="st3"
   d="m 462.7,562.1 c 0,22.7 -5.9,44.5 -17.1,63.1 -16.6,27.6 -37.2,36 -65.6,47.4 -13.3,5.4 -28,11.3 -43.4,19.9 v 33.9 c 19.2,-12.8 38,-20.3 55.6,-27.5 29.9,-12.1 56.9,-23.4 78.2,-58.8 14.1,-23.5 21.2,-50.6 21.2,-78 V 456.2 h -29 z" />
</g>
</svg>
