<svg id="Layer_1" data-name="Layer 1" xmlns="http://www.w3.org/2000/svg" width="175.7" height="305.68" viewBox="0 0 175.7 305.68"><title>France national football team logo - Brandlogos.net</title><g id="layer1"><path id="path4694-4" d="M373.27,288c-3.56.34-2-1.32-4.07,2.35l-3.91,6.06-6.46-1.06c-5.75-.25-4.76-1.63-7-.32a5.93,5.93,0,0,0-2.92,3c-.64,1.34-1,2.72-1.79,4.35-1.18,2.32-1.62,2.68-1.43,5.18a53.67,53.67,0,0,0,1.81,7.68c.31.66-4,2.7-5.73,4-3.08,2.29-3,3.77-3,7a12.2,12.2,0,0,0,1.27,5.09,8,8,0,0,1,1,4.66c0,1.62,3,4.6,3.51,5.57.86,1.67-1.71,4.36-3.77,7.76-3.82,6.33-4.35,9.54-4.35,19.71,0,7.43,1.8,8.34,3,12.44,1.67,5.82,3.41,11.26,6.77,15.82a21.74,21.74,0,0,1,4.08,9.26c1.3,6.25,1.83,7.25,5.53,11.37,4.53,5,11.09,9.71,15.67,10.54,1.84.34,7.08,5,8.63,7.94a37.84,37.84,0,0,0,5.71,7.83l5.67,5.81-2.86,5.77c-.5,1.67-3.06,4-6,6.57L378.43,466l-8.59,1.7c-9.32,1.84-13.87,4.21-19.64,8-7.14,4.74-8.56,4.26-3.51,10,2.77,3.15,6.45,3.22,14.37,2.69l6.28-.42,3.27,3.27c5.71,5.71,11.13,7.87,19.45,6.23l3.77-.74,2.22,2.16a32.28,32.28,0,0,0,6.34,3.83c4.11,1.9,9.68,1,14.12-1.34,3.91-2,5.64-2.09,10.56-.39s8.53.19,12.47-2.24l2.91-1.79,3.37,1.38c4.26,1.74,4.08,2.31,9.32.69,3.37-1,5.42-.37,10.4-4.85,7.19-6.48,8.69-5.71,9.05-10,.22-2.61.21-2.12-1.06-4.28-2.7-4.6-5.18-6-15.35-9a48.41,48.41,0,0,1-6.57-2.61c-1.49-2.07-2.64-3.66-3.19-5.93s-3.93-7.93-5.09-10.55-.92-7.72-.83-7.82,6.57-.28,8.72.45c11.1,3.75,22.93,1.34,36.68-5.34,6.32-3.07,3.6-.42,2.43-6.75-.37-2,.92-4.42.69-7.54l-1.6-9.45c14.28-5,16.88,5.09,9.43-2.53l-1-5,1.11-4.71c2.88-11,3.42-30.1,1.05-39.53-4.56-18.15-9.44-26-28.18-30.88-5.2-1.34-7.17-2.7-13.26-2.48-5.69.21-10,.17-13.34,1.45-5.91,2.28-7.81,6.25-13.08,11.58-5.59,5.65-10.59,10.45-16.11,21.4-4.58,9.06-7.88,10.81-9.9,10.81-1.77,0-9-1.81-10.18-3.65-.55-.84-2.43-8-2.82-11.71-.57-5.44.07-7.63.9-12.5,1.07-6.3,1.09-14.55.22-18.31-.51-2.22-1.59-5.66.63-8,3.53-3.64,4.62-4,4.27-7.72-.16-1.69.72-2.42.05-3.33s-.6-2.43-1-3.7a9.08,9.08,0,0,0-3-4.23c-1.49-1.25-4.27-2.4-4.27-3a4.86,4.86,0,0,0-2.8-4.62,10.43,10.43,0,0,0-4.46-1c-2.71.19-2.91.74-3.59-.53-1.15-2.14-1.27-4.44-4.47-4.37Z" transform="translate(-332.3 -238.63)" style="fill:#fff"/><g id="g4686"><path id="path4694" d="M373.27,288c-3.56.34-2-1.32-4.07,2.35l-3.91,6.06-6.46-1.06c-5.75-.25-4.76-1.63-7-.32a5.93,5.93,0,0,0-2.92,3c-.64,1.34-1,2.72-1.79,4.35-1.18,2.32-1.62,2.68-1.43,5.18a53.66,53.66,0,0,0,1.81,7.68c.31.66-4,2.7-5.73,4-3.08,2.29-3,3.77-3,7a12.2,12.2,0,0,0,1.27,5.09,8,8,0,0,1,1,4.66c0,1.62,3,4.6,3.51,5.57.86,1.67-1.71,4.36-3.77,7.76-3.82,6.33-4.35,9.54-4.35,19.71,0,7.43,1.8,8.34,3,12.44,1.67,5.82,3.41,11.26,6.77,15.82a21.74,21.74,0,0,1,4.08,9.26c1.3,6.25,1.83,7.25,5.53,11.37,4.53,5,11.09,9.71,15.67,10.54,1.84.34,7.08,5,8.63,7.94a37.84,37.84,0,0,0,5.71,7.83l5.67,5.81-2.86,5.77c-.5,1.67-3.06,4-6,6.57L378.43,466l-8.59,1.7c-9.32,1.84-13.87,4.21-19.64,8-7.14,4.74-8.56,4.26-3.51,10,2.77,3.15,6.45,3.22,14.37,2.69l6.28-.42,3.27,3.27c5.71,5.71,11.13,7.87,19.45,6.23l3.77-.74,2.22,2.16a32.28,32.28,0,0,0,6.34,3.83c4.11,1.9,9.68,1,14.12-1.34,3.91-2,5.64-2.09,10.56-.39s8.53.19,12.47-2.24l2.91-1.79,3.37,1.38c4.26,1.74,4.08,2.31,9.32.69,3.37-1,5.42-.37,10.4-4.85,7.19-6.48,8.69-5.71,9.05-10,.22-2.61.21-2.12-1.06-4.28-2.7-4.6-5.18-6-15.35-9a48.41,48.41,0,0,1-6.57-2.61c-1.49-2.07-2.64-3.66-3.19-5.93s-3.93-7.93-5.09-10.55-.92-7.72-.83-7.82,6.57-.28,8.72.45c11.1,3.75,22.93,1.34,36.68-5.34,6.32-3.07,3.6-.42,2.43-6.75-.37-2,.92-4.42.69-7.54l-1.6-9.45c14.28-5,16.88,5.09,9.43-2.53l-1-5,1.11-4.71c2.88-11,3.42-30.1,1.05-39.53-4.56-18.15-9.44-26-28.18-30.88-5.2-1.34-7.17-2.7-13.26-2.48-5.69.21-10,.17-13.34,1.45-5.91,2.28-7.81,6.25-13.08,11.58-5.59,5.65-10.59,10.45-16.11,21.4-4.58,9.06-7.88,10.81-9.9,10.81-1.77,0-9-1.81-10.18-3.65-.55-.84-2.43-8-2.82-11.71-.57-5.44.07-7.63.9-12.5,1.07-6.3,1.09-14.55.22-18.31-.51-2.22-1.59-5.66.63-8,3.53-3.64,4.62-4,4.27-7.72-.16-1.69.72-2.42.05-3.33s-.6-2.43-1-3.7a9.08,9.08,0,0,0-3-4.23c-1.49-1.25-4.27-2.4-4.27-3a4.86,4.86,0,0,0-2.8-4.62,10.43,10.43,0,0,0-4.46-1c-2.71.19-2.91.74-3.59-.53-1.15-2.14-1.27-4.44-4.47-4.37Zm-18.66,12.21c.58,0,1.54.1,3,.25,5.45.58,6.64,1.06,8.25,3.32,1.29,1.81,1.36,1.83,3.43,1,3.46-1.45,5.12-1.13,7.74,1.5,2.18,2.18,2.38,2.67,2.38,5.67,0,4-1.37,6.49-5,9.1-3.44,2.49-5.78,2.47-7.16-.07-2.76-5.08-4.67-6.84-10.7-9.87-3.29-1.65-6-3.26-6-3.58,0-.76,2.77-.73,8,.09a23.46,23.46,0,0,0,5,.43c.38-.13-1.38-1.53-3.91-3.11A37.76,37.76,0,0,1,354.2,301c-.48-.58-.56-.82.41-.81ZM380,315.58c1.22.16,5,2.53,6.35,4.36,3.7,4.92,4.92,14.54,3.16,25a81.36,81.36,0,0,0,0,22.39c.25,1.47,0,1.22-1.23-1.23a14.36,14.36,0,0,0-.9-1.6c-6.46-13.39,3.42-35.54-5.79-45.64,8.58,18.45-6.38,45.55,15.93,59.7a21.63,21.63,0,0,0,5.72,2.54c2.56.61,3.44.54,6.67-.55,13.2-4,17.09-14.17,26.16-22.5,9.19-8.09,17.74-11.31,26.41-9.95,15.09,2.38,26,21,26.07,44.43,0,7-.47,12.51-1.13,12.5a21.5,21.5,0,0,1-3.2-3.53L481.4,398l-.36-7.67c-.42-8.88-2.25-16.16-5.76-22.84-2.58-4.92-7.5-9.71-11.06-10.77-5.32-1.59-12.23-.46-20.16,3.3-4.12,2-17,10-18.34,11.48,9.32-5.13,19-11.15,29-10.39,9.8.91,19,8.59,21.48,17.88.36,1.35,1.07,5.43,1.58,9.06a44.27,44.27,0,0,0,1.64,8,69.17,69.17,0,0,0,5.07,6.5c2.4,2.82,4.87,5.8,5.5,6.61l1.14,1.48-2.67-.17-2.67-.17.08,10.09c.07,9,0,10-.83,8.89-2.76-3.63-5.06-11.91-5.07-18.29,0-3.93.06-4.16,1.06-3.37.59.46,0-.36-1.28-1.82-2.32-2.63-6-10.43-6.54-12.29-2.85-12.28-13.52-21.88-22.93-23.81-.68-.14-4.71.3-9.88,1.49-4.46,1-23.83,10.36-23.3,11.22l.07.08c-12.78,3.07-14.28,1.8-24-.27l-3.77-3.6c-2.68-2.57-4.72-6.94-6.7-14.31-1.59-5.92-1.65-6.77-1.83-24.84-.2-20.08-.28-22-1-23.15-.34-.54-.22-.73.19-.68Zm-4.88,6h0c1.49,0,.37,4.29-2.73,10.4-9,17.76-8.95,24,.48,46.49l3.41,8.13L374,385.47c-2.18-1.11-6.53-5.35-8.87-8.64L364,375.3l.73,1.52c1.27,2.66,6.74,7.94,10.12,9.76l3.26,1.76-.83-1.92L374.53,380c-4.53-19.74-2-29.43.57-47.57-.46,12.48-1.15,25.54,1.21,37.9,2.52,11.83,10,22.21,19.22,26.7a70.86,70.86,0,0,0,19.65,5.32c6.58.65,3.45,1.38-6.14,1.43-9.25,0-13.06-.59-18.31-3.06-3.53-1.66-8.77-6.42-11.44-10.39l-1-1.53,0,1.64c0,2.33-1.39,7.87-1.9,7.87s-7.73-8.09-11-12.49c-7.79-11-13.41-24.52-9.33-36.44-5.54,12.46,2.33,27.34,9,36.8,3.17,4.29,3.88,5.7,4.25,8.48a25.31,25.31,0,0,0,1.72,6.1,13.56,13.56,0,0,1,1.19,3.19c0,.24,1.71,1.72,3.91,3.28,6.19,3.72,10.94,5.75,17.76,5.8a62.89,62.89,0,0,0,4.47,9.74c-12.31-4.26-20.65-10.32-27.77-18.64,8.28,11.67,23.22,20.18,44.7,22.5L411.83,423c-3.3-3.56-6.61-8.71-7.57-11.74-.41-1.3,0-1.13,2.83,1.28,8.71,7.33,12.64,8.64,19.31,6.44a1.21,1.21,0,0,1,1.13,0c.9,3.25,2.94,9.72,3.1,9.57.24,1.19.05,1.81-.61,2.06-1.47.56-8.71-1-11.75-2.55-2.5-1.26-2.9-1.31-4.5-.51-2.41,1.2-9.51,2.65-13.07,2.66a47.81,47.81,0,0,1-15.46-3.33c-7.34-3.39-11.51-9.45-15.31-22.26-.34-1.14-.22-1.31.71-1,.61.22-1-1.78-3.52-4.45a92,92,0,0,1-6.7-7.76c-11.73-15-13.13-37.53-6.24-49.78,5.93-7.59,13.8-15.53,21-20Zm-5,6.21c-5.81,9.64-15.2,29.94-9.35,38.72C355.64,356.47,366.65,334.82,370.16,327.84ZM450,370.12c12.32,2.81,22.63,15.56,23.62,28.81.49,3.2,1,10.51,1.13,16.24s.52,11.14.86,12a27,27,0,0,0,3.73,5.15,22.42,22.42,0,0,1,3.12,4.08c0,1.11-4.23.44-7.4-1.17-3.62-1.83-7.15-5.88-7.74-8.87-.26-1.32-.61-1.68-1.35-1.4-2.18.85-9.14,1-11.33.32-4.18-1.38-6.54-6.56-9.27-20.39-1.82-9.23-2.91-11.77-5.54-13s-11.31-2.17-20.85-2.18a99.88,99.88,0,0,1-11.87-.64,28.78,28.78,0,0,1-13.49-6.46c8,2.91,17.2,2.63,23.8,0,1.06.74,4.74,1.1,14.44,1.47,12.27.47,14.91,1.19,16.62,4.51.51,1,1.7,7.11,2.64,13.6,1.65,11.36,1.8,12,4.24,16.14,1.39,2.38,3,4.56,3.62,4.82a25.4,25.4,0,0,0,5.07.85c3.69.34,6.87,0,3.9-.47-1.28-.18-1.32-.51-1.68-12.88-.53-18.33-1-22.46-3.33-27.37-2.19-4.68-7.17-9.9-11.15-11.7-1.67-.75-2.25-1.61-1.8-1.5Zm-70.19,9.48,3.33,2.8c10.44,8.78,20.61,13.06,35.71,15,8.22,1.06,12,2.16,13.62,4,1.28,1.42,2.73,7.21,2.76,11,.05,6.91,3.15,15.63,7.07,19.91h0l2,2.17h-2.84c-4.09,0-9-3-10.59-6.44-.11-.24-.19-.41-.26-.52A106.74,106.74,0,0,1,426,404.91c0-1-3.82-2.24-10.13-3.22-9.35-1.46-17.52-3.62-21.32-5.64-4.08-2.17-10.65-8.81-13-13.13Zm-26.14,1.84a59.31,59.31,0,0,0,6.12,9.82c.34.21.61,3,.61,6.32,0,7.92.9,13.11,3.07,17.78l1.79,3.86-1.78-1.27c-3.36-2.39-6.77-6.87-7.72-10.14s-2.07-15.64-2.09-22.69Zm25.46,9.43,2,2.71a32.28,32.28,0,0,0,9.73,8c3.6,1.83,9.52,2.82,17.05,2.85,7.14,0,7.3.06,5.21,1a57.46,57.46,0,0,1-7.05,2.12c-11.28,2.72-18.75,1-26.22-6.08-2.5-2.36-2.67-3.19-1.51-7.64Zm103.42,17.43s.23.26.79.71a4.31,4.31,0,0,0,1.79,1c.78,0,.43-.28-1.45-1.18A5.1,5.1,0,0,0,482.54,408.29Zm-36.78,7,1.38,3.91a65.72,65.72,0,0,0,2.79,6.67c2.14,4.17,8.35,9.91,13.51,12.49l4.45,2.23-3.92-.08c-9.71-.21-15.29-2.77-17.37-8-1.3-3.25-1.86-9.17-1.29-13.71Zm-29,53.33,4.61,1.68C426,472,426,472,430.27,471a39.12,39.12,0,0,1,6.46-1c1.89,0,2.18.2,2.18,1.46s-.3,1.49-3.83,1.82c-2.11.2-5.4.54-7.33.76a11.21,11.21,0,0,1-6.9-1c-3.4-1.41-3.42-1.41-5.71-.25-1.89,1-4,1.2-11.91,1.39-9.14.22-9.64.17-10.27-1a6.14,6.14,0,0,1-.66-1.61c0-.2,4.21-.3,9.35-.22,8.75.14,9.54.05,12.24-1.3Zm-46.89,5.09c1.55,0,1.59.07.7,1.33-.62.89-2.36,1.69-5.26,2.43-6.46,1.64-7.24,2.34-2.64,2.36a18.08,18.08,0,0,1,14,6c3.7,4,5.45,4.38,13.09,3,6.4-1.13,7.88-.74,12.09,3.25s6.28,4.08,10.82,1.17c2.67-1.72,3.45-1.91,7.43-1.87a33.53,33.53,0,0,1,8.38,1.28c4.29,1.34,3.78,1.47,8.25-2.24,3.21-2.66,5.55-2.63,10.51.14,6.2,3.47,8.15,3,15-3.26l4.59-4.24-3.06-1.55a41.8,41.8,0,0,0-5.61-2.31,8.06,8.06,0,0,1-3.85-2.52c-1.55-2.1-1.36-2.13,3.68-.47,7.48,2.46,12.59,5.63,11.92,7.4-.46,1.19-9.81,9.81-11.8,10.86a13.54,13.54,0,0,1-4.6.82c-2.63.07-4-.33-7.46-2.17a37.46,37.46,0,0,0-4.67-2.25,18.7,18.7,0,0,0-3.43,2.36c-4.83,3.82-5.12,3.9-9.12,2.49a37,37,0,0,0-7.32-1.59c-3.53-.33-4.11-.19-8,1.87-6.31,3.35-8.54,3-13.75-2-3.66-3.53-4-3.61-11.25-2.23s-10.51.38-14-4c-3.24-4.08-6.16-5-15.4-4.92-8.34.09-9.86-.42-7.19-2.45,4-3,13.87-6.69,18-6.69Zm7.79,1.26c.4,0,.6.08.46.2a16.93,16.93,0,0,1-3.32.58c-2.07.24-2.57.18-1.53-.17a17,17,0,0,1,3.94-.61h.46Zm69.87,1.36a26.84,26.84,0,0,1,5.77,1.11c.7.28.83.47.31.46-1.57,0-6.28-1.07-6.65-1.44-.11-.11.13-.15.57-.13Z" transform="translate(-332.3 -238.63)" style="fill:#cad4d7"/><path id="path4690" d="M378.52,523.46v20.85H384v-8h6.75v-4.91l-6.74,0c0-1.39,0-2.14,0-3.61l6.71,0v-4.29Zm33.12,0v20.85h5.52v-8h6.75v-4.91l-6.74,0c0-1.39,0-2.14,0-3.61l6.71,0v-4.29Zm33.73,0v20.85h5.52v-8h6.75v-4.91l-6.74,0c0-1.39,0-2.14,0-3.61l6.71,0v-4.29Z" transform="translate(-332.3 -238.63)" style="fill:#17548c"/><path id="path4688" d="M402.32,506.68c-3.07-.85-3.87-1.35-7.24-4.46-2.11-1.95-2.2-2-5.52-1.35a40.43,40.43,0,0,1-8,.36c-5.65-.33-8.83-1.84-13.09-6.21l-3.07-3.15-7.44.2c-8.59.23-11.41-.54-14.38-3.93s-3.25-8.78-.62-12.12c1.78-2.27,9.39-6.78,14.47-8.58a111.1,111.1,0,0,1,17.17-4c3.69-.64,10.84-7.07,11.83-10.64l.72-2.58-4.83-4.91a51,51,0,0,1-6.93-8.73c-1.32-2.41-2.49-3.83-3.17-3.83-3.37,0-12-5-17.55-10.08a27.77,27.77,0,0,1-9-17.5c-.35-2.52-1.09-4.14-3.23-7a57.42,57.42,0,0,1-8.81-19.15c-1.7-7-1.83-17.18-.28-22.88,1.1-4,4.1-10.61,5.69-12.41.79-.9.77-1.26-.18-3.07a14,14,0,0,1-1.14-5.12,9.72,9.72,0,0,0-1.25-4.84,12.09,12.09,0,0,1-1.4-5.52c-.19-3.23,0-4.08,1.41-6.22a19.28,19.28,0,0,1,6.29-5.53,8.39,8.39,0,0,0-.77-2.31c-1.28-3.06-1.17-4.64.56-8a29.38,29.38,0,0,0,1.88-4.51,10.26,10.26,0,0,1,4.8-6.05c2-1,7.82-1.33,12.38-.6l2.45.39,1.41-3c1.79-3.84,4.4-5.55,8.47-5.54a8.57,8.57,0,0,1,7.31,3.52c.7,1,1.72,1.29,5.16,1.49,3.7.21,4.54.48,6.1,2a13.13,13.13,0,0,1,2.6,3.64,17.11,17.11,0,0,0,3.37,4.37,12.25,12.25,0,0,1,3,4.27,15.31,15.31,0,0,0,1.89,3.92c2.84,4.18,1.53,10.4-3.18,15.11l-2.16,2.16.68,6.91c.59,6,.52,7.94-.47,14.6-1.2,8-1,17.92.38,21.6.69,1.82,5.18,5.36,6.81,5.36,2.19,0,4.34-2.74,8.31-10.59,5.8-11.46,10.08-17.79,15.83-23.45,8.77-8.61,16.9-12.23,27.36-12.19,14.28.06,29.58,7,37.78,17.26,3.35,4.17,7.67,13,9.13,18.55,2.26,8.71,1.78,31.52-.88,41.87l-1.14,4.43,1.64,1.84c.9,1,2.27,2.56,3,3.45l1.4,1.61L501.22,417l-6.78,1.68,0,3.46a103.57,103.57,0,0,0,1.12,10.68l1.09,7.22-3.42,1.85a79,79,0,0,1-16.76,6.18c-9.14,2.42-22.36,1.64-28.8-1.68-.94-.49-1.71-.64-1.71-.34a41.89,41.89,0,0,0,2.18,5.26,66.27,66.27,0,0,1,3.37,9.39c.66,2.57,1.26,4.73,1.35,4.79s2.71.84,5.83,1.73c6.22,1.77,12.11,4.49,15.56,7.22a10.86,10.86,0,0,1,2.79,14.2c-2.07,3.52-12,12.46-15.57,14.08a22,22,0,0,1-8.15,1.54c-4.49.19-5.63,0-8.26-1.22L442,501.61l-2.52,1.7c-4.55,3.07-7.26,3.23-14.63.88-4.09-1.31-4.85-1.24-9.18.85a19.55,19.55,0,0,1-13.38,1.65Zm10.83-10c4-2.65,11-2.39,18.13.67.9.39,4.31-1.56,8.15-4.66l1.72-1.39,4.19,2.29c3.3,1.81,4.86,2.29,7.34,2.29,4.49,0,6.39-1,12.58-6.94,5.33-5.07,5.45-5.25,4.54-6.63-1.36-2-7.41-5.15-13.09-6.72-11.17-3.09-11-2.93-13.14-11.56a88.22,88.22,0,0,0-4.94-12.84,99.88,99.88,0,0,1-7-19.4l-.45-1.84,1.73,1.62a12.15,12.15,0,0,0,9.14,3.6c2.82,0,3.35-.15,2.81-.81-.37-.45-1.1-4.79-1.63-9.66-1.27-11.78-3.17-23.46-4.21-25.89-1.61-3.78-5.17-5.95-12.33-7.51l-3.69-.8,3.07,0c3.84,0,11.12,1,13.3,1.84s3.44,3.73,5.43,13.52c3,14.69,5.1,18.95,10,20.27,2.32.62,2.78,1,3.35,2.92,1.62,5.41,6.36,9.23,11.43,9.22,4.4,0,5.21-.74,2.6-2.35-3.62-2.24-10.19-9.9-8.49-9.9a5,5,0,0,0,1.43-.32c.54-.21,1.1.4,1.57,1.69,1.82,5,7.51,9.44,13,10.09,4.08.48,4.1-.35.07-4.95a42.14,42.14,0,0,1-3.78-4.85c-.45-.83-.78-5-.87-10.73-.14-8.88-.59-15.49-1.26-18.22-.16-.67.55.27,1.59,2.11a35.26,35.26,0,0,0,2.8,4.34c.62.68.91,2.37.92,5.25a36.83,36.83,0,0,0,3.57,16c3.72,7.3,3.72,7.3,3.33-4.83l-.35-10.89,2.55.1a7.46,7.46,0,0,0,2.89-.24c.19-.19-.48-1.28-1.48-2.41-1.76-2-1.8-2.18-1.2-5.43.94-5.07.2-19.57-1.31-25.62-3.37-13.52-10.27-23.58-19-27.62a19.92,19.92,0,0,0-8.53-1.85c-9.11-.41-16.44,2.95-25.88,11.85l-4.55,4.3,1.49-2.76c2.33-4.32,11.87-13.5,16.21-15.59,6.69-3.23,16.24-2.82,24.11,1,4.54,2.22,11.75,8.66,14,12.52,4,6.8,5.74,18.11,5.74,37,0,8,.23,12.85.6,12.85,1.07,0,3-4.58,4.11-9.87.87-4.05,1.11-8,1.11-18.35,0-12.12-.11-13.56-1.43-17.79-3.39-10.86-9.94-18.75-19.33-23.3-7.45-3.6-16.18-5.35-22.35-4.46s-11.55,3.66-17.1,8.94-9.61,11.31-15.43,22.81A99.7,99.7,0,0,1,415.18,377c-1.87,2.27-7.93,4.38-11.1,3.87-5.9-.94-12-6.25-13.72-11.89-1.35-4.47-1.47-18.93-.23-26.95,1.45-9.37-.5-19.21-4.66-23.56-1.58-1.65-1.51-3,.15-3,.49,0,1.16.69,1.48,1.53.67,1.76,1.36,1.93,2.45.61a3.66,3.66,0,0,1,2.49-.92c3,0,5.83-5.61,3.19-6.35-.59-.17-2-.49-3.12-.72l-2-.41,1.59-1.66c2.75-2.87,2.21-3.34-3.32-2.86-2.7.24-4.91.22-4.91,0a23.51,23.51,0,0,1,1.86-3.75c1-1.81,1.71-3.53,1.54-3.82s-2.6,0-5.39.62S376.19,299,376,299s-.61-1.5-.84-3.36-.73-3.37-1.13-3.37-1.5,1.81-2.47,4-2.41,4.46-3.22,5c-1.33.87-1.76.87-4.67,0-4.33-1.3-9.14-1.8-10.26-1.07s-.59,1.16,5.07,4.74a19.18,19.18,0,0,1,3.37,2.39,46.47,46.47,0,0,1-5.55-.5c-4.17-.51-5.56-.49-6.13.1-1,1,.33,2,6.77,5.07,4.81,2.29,5,2.49,4.67,4.07-.89,3.73-4.31,5.38-9.92,4.76-2.71-.3-4-.14-5.64.71-3.73,1.91-3.14,4.9,1.38,6.92,2.26,1,2.28,1.05,1.1,2.12-1.76,1.59-2.79,5-1.85,6.18s4.28,1.12,8-.29,3.77-1.48-3.43,6.11c-10,10.51-12.51,20.21-9.12,34.94,1.23,5.36,5.1,13.12,8.4,16.87,2.42,2.74,2.78,3.55,3.4,7.67,1.09,7.2,1.78,8.92,5,12.39,5.83,6.37,13,10.24,19.1,10.28,2.09,0,2.22.14,2.94,3,1.29,5,7,12.38,12.28,15.69a7.71,7.71,0,0,1,2.8,2.72c.52,1.63-1.19,9.47-2.77,12.74-1,2.09-5.39,6.54-8.5,8.64a3.37,3.37,0,0,0-.35,1.55c-.08,1.15-.59,1.46-3.12,1.89-3.76.63-11,2.05-16.21,3.2-4.49,1-14,5.53-15,7.2-1.12,1.85.68,2.29,8.85,2.18,9.15-.12,11.52.62,14.95,4.72a17.92,17.92,0,0,0,4.17,3.71c2.11,1.09,7.93,1.22,11.86.27,4.37-1.06,6.06-.79,8,1.3a30.07,30.07,0,0,0,4.56,3.72c2.36,1.54,3.16,1.75,5.5,1.44a14.7,14.7,0,0,0,5.21-2Zm-14.83-25.87c-4.82-.32-5.57-.51-5.07-1.3a5.66,5.66,0,0,0,.59-2.5c0-2,4.77-10.88,8.27-15.38,2.9-3.73,4.62-6.72,4.62-8,0-.44-2.06-3.42-4.58-6.62l-4.58-5.82,5-.51,5-.51,10.27,10.63c9.74,10.09,15.62,17.5,19.14,24.11,2,3.79,2,4.62-.11,4.62a54.05,54.05,0,0,0-6.73,1c-4.88,1-5.15,1-8-.23-4.72-2-5.86-2.08-8.38-.73s-7.29,1.81-15.53,1.25Zm64.21-48.37c0-.59-.27-7.42-.58-15.18-.82-20.44-2.39-27.31-7.25-31.7q-5.91-5.34-16.09-2.69a15,15,0,0,1-3.55.68c-.37-.37,5.74-2.13,9.31-2.67,3.28-.5,3.86-.41,6.61,1.06,4.1,2.19,9.21,7.39,11.14,11.34,2.18,4.46,2.72,8.74,3.22,25.68l.43,14.57h-1.61c-1.12,0-1.61-.33-1.63-1.07ZM454,415.48c-.87-2-1.85-7-2.81-14.12-1.65-12.29-2.32-14.06-6.13-16.11-2.12-1.14-3.52-1.33-10.43-1.4-13.86-.14-13.79-.1-4.6-2.4a84.33,84.33,0,0,1,10.12-2.08c4.9,0,11.2,5.41,12.84,11.1a82.81,82.81,0,0,1,1.56,11.85c.34,4.72.79,10.31,1,12.42s.25,3.83.08,3.83A12,12,0,0,1,454,415.48Zm25.44-20c-.22-.58-.94-4.63-1.6-9-1.41-9.31-2.95-13.13-7.06-17.53-5.47-5.85-13.3-9-20.5-8.38a39.16,39.16,0,0,0-7.55,1.58,12.77,12.77,0,0,1-3.49.94c0-.54,6.22-3.39,10.65-4.88,8.81-3,14.79-2,20,3.27,6.13,6.21,9.64,15.81,10.29,28.15C480.5,396.22,480.32,397.72,479.45,395.45ZM469,440.66c.21-.34,0-.61-.49-.61a26.2,26.2,0,0,1-5.2-2.16q-12-6-16.43-20.08c-1.59-5.08-2.36-3.6-2.39,4.61,0,9.41,1.69,13.65,6.56,16.17C455.13,440.7,468,442.19,469,440.66Z" transform="translate(-332.3 -238.63)" style="fill:#21304d"/></g><path id="path4696" d="M368.92,308a1.63,1.63,0,0,0-1.51.62,1.59,1.59,0,0,0-.62,1.33,2.43,2.43,0,0,0,.9,1.84,2.6,2.6,0,0,0,2.47-.33,2.2,2.2,0,0,0,.64-2.28c-.28-.85-.81-1.19-1.89-1.19Zm-5.37,8.61s0,0,0,.06.16.84.37,1.64a19.09,19.09,0,0,1-.39,10.19c-.29.88-.54,1.66-.54,1.71s.1,0,.23-.09c.3-.25,8.33-6.25,8.91-6.66s.42-.32-1-.21c-1.81.14-2.89-.13-3.66-.9a21.06,21.06,0,0,1-1.87-2.77,12.79,12.79,0,0,0-2-3Zm15.25,1.09c-.29,0-.8.54-2,2l-1.43,1.72.11,18.54c.11,18.83.27,24.94.74,29,.6,5.19,1.59,7.28,4.75,10,4.46,3.9,12,7.59,19.91,9.75,1.72.47,2.85.61,2.55.31A24.63,24.63,0,0,0,401,388a33.76,33.76,0,0,1-10.35-7,39,39,0,0,1-3.16-3.48,30.79,30.79,0,0,1-3.71-7.09,70.62,70.62,0,0,1-2.46-9.34c-1.12-6.13-1.26-10-.94-25.39.1-5,.09-8.09-.06-10.06-.29-3.9-.79-6.88-1.29-7.66A.28.28,0,0,0,378.8,317.72Zm77.83,17.48a24.65,24.65,0,0,0-3.73.3c-6.8,1.1-12.87,4.76-19,11.48-4.1,4.47-7.09,9.14-12.65,19.76-3.42,6.52-4.23,10.82-12.77,14.32,15-1.6,22.27-26.09,36.51-34.3a23.81,23.81,0,0,1,13.51-3.25,30,30,0,0,1,12.78,3.24,45.58,45.58,0,0,1,12.85,11q3.87,5.15,5.5,16.52c.77,5.37,1,9.47,1.19,20.64.16,9.95.25,12.44.48,13.65.15.79.64.37,1.49-1.27A40.81,40.81,0,0,0,496,395.46c.39-3,.58-22.68.26-26.31-.68-7.69-5-16.64-10.82-22.44a34.37,34.37,0,0,0-10.28-7.11,44.57,44.57,0,0,0-18.56-4.4ZM445,372.36a27.83,27.83,0,0,0-6.28.84c-3.5.8-3.72.83-3.59.49.06-.16.06-.29,0-.29-.27,0-4.7,2-7.21,3.25-3.25,1.62-10.6,5.74-10.47,5.87a18.33,18.33,0,0,0,3.51,1c1.53.3,2.59.35,2.59.1s1.91-.83,6.76-2a72.88,72.88,0,0,1,10.09-2c3.65,0,8.63,3.56,11.29,8,1.69,2.86,2.21,5.92,3.28,19.35.3,3.77.63,7.84.73,9s.18,2.25.19,2.32a1,1,0,0,1-.28.41c-.26.26-.21.38.43,1.34a10.38,10.38,0,0,0,3.43,3.21,11,11,0,0,0,3.27.93c.2,0,1.05.08,1.89.09l1.53,0c.8.37,0-.35-.41-.55-5.23,0-2.55-3.69-3.65-10.14-.76-19.5-1.37-25.45-3.19-30.89a14.15,14.15,0,0,0-3.75-6.28,13.11,13.11,0,0,0-8.5-4,14.16,14.16,0,0,0-1.66-.1Zm-23.9,31c-1.46,0-1.8.12-6,1.9-2.25,1-3.06,1.39-3.06,1.62a2.11,2.11,0,0,0,.69.93c1.4,1.26,11.6,8.74,13.28,9.74,1.22.72,1.56.79,1.56.33a78.82,78.82,0,0,0-2-10.53c-.84-3.19-1.74-4-4.44-4Zm-20.05,5.88c-.63,0-1.14.26-3.27,1.66a11.77,11.77,0,0,1-2.45,1.29c-1.15.29-1.27.51-.9,1.66a50.37,50.37,0,0,0,4.6,9.21c.38.49.72.65,2.48,1.13,2.31.63,5.81,1.37,8.26,1.75a25.58,25.58,0,0,0,2.81.27l1.16,0-1.53-1.66A45.71,45.71,0,0,1,405,413.77c-1.72-3.45-2.67-4.56-3.89-4.57Zm52.47,16.48c-.06,0-.1,0-.11,0a4.93,4.93,0,0,0,1.43.59c2.58.85,2.57.84,3.73,3.82a12.76,12.76,0,0,0,3.16,4.85,12.31,12.31,0,0,0,5.55,3.2,18.26,18.26,0,0,0,5.84-.08c.94-.37.8-.57-1.87-2.53-2.38-1.75-6.56-6.26-7.5-8.1-.48-.95-.45-1.23.14-1.32.28,0-.4,0-1.51,0-3.9.22-6.85.14-7.91-.23a5.25,5.25,0,0,0-.95-.25Zm-36.31,50.57a4.4,4.4,0,0,0-2.12.5,12.9,12.9,0,0,1-2.13.74c-1.52.33-6,.53-14.15.65-8.38.12-11.18.3-12.71.83a22.37,22.37,0,0,1-3.38.64,64.32,64.32,0,0,0-6.42.91c-.23.23.55,1.23,2.43,3.14s2.1,2.07,3.1,2.35c1.32.38,3.21.3,7.22-.31a36.63,36.63,0,0,1,5.3-.41c2.34,0,2.77,0,3.7.41a16.45,16.45,0,0,1,5,3.51c1,.92,2.28,2,2.83,2.47a9.21,9.21,0,0,0,1.1.8c.05,0,1.73-.82,3.74-1.82a41.46,41.46,0,0,1,4.74-2.1,30.9,30.9,0,0,1,8.29,0c1.07.15,3.31.62,5,1l3,.75L433.4,489c3.3-2.81,5.08-3.66,7.64-3.67,2,0,3.39.43,6.8,2.13,2.91,1.45,4,1.83,5.46,1.82,1.6,0,3-.79,5.15-2.93,1.43-1.4,1.68-1.73,1.5-2-.49-.6-6.26-2.41-10.14-3.2-1-.2-2.7-.59-3.78-.85a9.2,9.2,0,0,0-2.23-.37A3,3,0,0,0,443,481c-1.19,2.38-2.49,2.89-8.21,3.25-8.93.56-10.19.7-11,1.22-.52.34-.53.24-.07-.66a8.57,8.57,0,0,1,2.93-2.71l1.55-.89.73-.43-.91.1a38.59,38.59,0,0,0-5.65.92,1.84,1.84,0,0,1-1,.16c-.24-.25,1.32-1.38,3.2-2.33a10.33,10.33,0,0,0,1.88-1.09c0-.08-.31-.14-.68-.14a24.08,24.08,0,0,1-5.74-1.45,10.57,10.57,0,0,0-2.86-.72Z" transform="translate(-332.3 -238.63)" style="fill:#b0babf"/><path id="path65" d="M403.25,268.72l-9.82-6.43-9.93,6.49,3.16-11.21-9.32-7.33,11.77-.5,4.17-11,4.12,10.91,11.9.52-9.23,7.24Z" transform="translate(-332.3 -238.63)" style="fill:#17548c"/><path id="path65-4" d="M454.49,268.63l-9.82-6.43-9.93,6.49,3.16-11.21-9.32-7.33,11.77-.5,4.17-11,4.12,10.91,11.9.52-9.23,7.24Z" transform="translate(-332.3 -238.63)" style="fill:#17548c"/></g></svg>