<?xml version="1.0" encoding="UTF-8"?>
<svg version="1.1" xmlns="http://www.w3.org/2000/svg" width="959" height="959">
<path d="M0 0 C2.11952487 0.00366986 4.23906626 0.00160294 6.35858154 -0.00575256 C12.09692616 -0.00947558 17.83172238 0.06682458 23.56924367 0.15770888 C29.57083482 0.23910121 35.5725118 0.24662194 41.5745697 0.26203918 C52.93295352 0.30240926 64.28970636 0.40903728 75.64737266 0.53958255 C88.58059888 0.68500313 101.51390395 0.75639405 114.44774449 0.82162321 C141.04671424 0.95742538 167.64423733 1.18601267 194.24194336 1.47583008 C193.03205416 4.5781594 191.8644866 7.27632222 189.91381836 9.97973633 C189.45104492 10.62749023 188.98827148 11.27524414 188.51147461 11.94262695 C188.0100293 12.63420898 187.50858398 13.32579102 186.99194336 14.03833008 C185.90287881 15.56009142 184.81435953 17.08224311 183.72631836 18.60473633 C183.1559082 19.40024902 182.58549805 20.19576172 181.99780273 21.01538086 C179.04887496 25.14765201 176.14734365 29.3128985 173.24194336 33.47583008 C168.44012374 40.34447993 163.61907491 47.19908519 158.78100586 54.04223633 C154.91857865 59.50889917 151.07759081 64.99035174 147.24194336 70.47583008 C142.43945636 77.34401563 137.61907736 84.19908172 132.78100586 91.04223633 C128.91857865 96.50889917 125.07759081 101.99035174 121.24194336 107.47583008 C116.43945636 114.34401563 111.61907736 121.19908172 106.78100586 128.04223633 C102.91857865 133.50889917 99.07759081 138.99035174 95.24194336 144.47583008 C90.43945636 151.34401563 85.61907736 158.19908172 80.78100586 165.04223633 C76.91857865 170.50889917 73.07759081 175.99035174 69.24194336 181.47583008 C64.43945636 188.34401563 59.61907736 195.19908172 54.78100586 202.04223633 C50.91857865 207.50889917 47.07759081 212.99035174 43.24194336 218.47583008 C38.43945636 225.34401563 33.61907736 232.19908172 28.78100586 239.04223633 C24.91857852 244.50889936 21.07762525 249.99037565 17.24194336 255.47583008 C10.45219392 265.18489312 3.6228273 274.86551698 -3.21704102 284.53930664 C-9.68420838 293.68745594 -16.12663086 302.85237282 -22.54663086 312.03369141 C-26.75409023 318.04840107 -30.98154847 324.04863002 -35.21899414 330.04223633 C-39.68134986 336.35800435 -44.11460869 342.69395503 -48.54492188 349.03222656 C-51.77048739 353.64455857 -55.00788831 358.24801601 -58.26278687 362.83969116 C-63.11353865 369.6860505 -67.89885396 376.57295709 -72.62915039 383.50317383 C-73.22240112 384.37131714 -73.81565186 385.23946045 -74.42687988 386.13391113 C-75.87112534 388.24752981 -77.31484198 390.36150748 -78.75805664 392.47583008 C-56.00113291 392.8500394 -33.2447182 393.13195254 -10.48533916 393.30482483 C0.08308734 393.38723724 10.64959949 393.49952794 21.21679688 393.68286133 C30.43026771 393.84263195 39.64235216 393.94562741 48.85716981 393.98124599 C53.73466994 394.0020617 58.60820517 394.05074796 63.48443031 394.16751099 C68.08145325 394.27668954 72.6729085 394.30951657 77.27110481 394.28555298 C78.9519157 394.28993111 80.63292541 394.32145743 82.31261063 394.38311768 C91.27890851 394.82271255 91.27890851 394.82271255 98.98861098 390.90441322 C102.27419417 387.05064149 104.79704427 382.82624633 107.19092309 378.37817001 C108.59866695 375.83016268 110.24935159 373.49058219 111.95678711 371.13598633 C112.75826172 369.99129883 112.75826172 369.99129883 113.57592773 368.82348633 C114.10508789 368.06938477 114.63424805 367.3152832 115.17944336 366.53833008 C116.06019531 365.28149414 116.06019531 365.28149414 116.95874023 363.99926758 C121.19349917 357.96005365 125.44469925 351.93255361 129.70263672 345.90966797 C133.56525442 340.44300072 137.40623101 334.96140123 141.24194336 329.47583008 C146.04443036 322.60764452 150.86480936 315.75257843 155.70288086 308.90942383 C159.56530806 303.44276099 163.40629591 297.96130842 167.24194336 292.47583008 C172.04443036 285.60764452 176.86480936 278.75257843 181.70288086 271.90942383 C185.56530806 266.44276099 189.40629591 260.96130842 193.24194336 255.47583008 C198.04443036 248.60764452 202.86480936 241.75257843 207.70288086 234.90942383 C211.56530806 229.44276099 215.40629591 223.96130842 219.24194336 218.47583008 C223.5610114 212.29899696 227.89092601 206.13020092 232.24194336 199.97583008 C238.9411045 190.49855963 245.5915097 180.98732817 252.24194336 171.47583008 C259.37596216 161.27270505 266.5163125 151.07454649 273.70336914 140.90869141 C277.56567808 135.44230411 281.40646404 129.96106796 285.24194336 124.47583008 C290.04443036 117.60764452 294.86480936 110.75257843 299.70288086 103.90942383 C303.56530806 98.44276099 307.40629591 92.96130842 311.24194336 87.47583008 C316.04443036 80.60764452 320.86480936 73.75257843 325.70288086 66.90942383 C329.56530806 61.44276099 333.40629591 55.96130842 337.24194336 50.47583008 C342.03686172 43.61846866 346.84748006 36.77265478 351.6809082 29.94238281 C354.4785628 25.98551269 357.26113262 22.01861449 360.03100586 18.04223633 C360.98813477 16.66938477 360.98813477 16.66938477 361.96459961 15.26879883 C363.21112371 13.47964 364.45597801 11.68931639 365.69897461 9.89770508 C366.26229492 9.08946289 366.82561523 8.2812207 367.40600586 7.44848633 C367.90567871 6.72927002 368.40535156 6.01005371 368.92016602 5.26904297 C370.24194336 3.47583008 370.24194336 3.47583008 372.24194336 1.47583008 C375.33819078 1.28203233 378.34474396 1.21554634 381.44192505 1.23532104 C382.40735226 1.2336122 383.37277946 1.23190335 384.36746204 1.23014271 C387.62273427 1.22683202 390.87780321 1.23787744 394.13305664 1.2487793 C396.45844518 1.24934307 398.78383408 1.24902752 401.10922241 1.24789429 C407.43951153 1.24731845 413.76972546 1.25911005 420.09999704 1.2730422 C426.04005629 1.28424899 431.98011251 1.28628636 437.9201809 1.28834595 C449.68776831 1.29272615 461.45532802 1.30604404 473.22290039 1.32495117 C484.65584169 1.34330158 496.08877547 1.35746219 507.52172852 1.3659668 C508.22613403 1.36649224 508.93053953 1.36701769 509.65629067 1.36755906 C513.18999017 1.37016908 516.72368972 1.37269651 520.25738931 1.37518287 C549.58559185 1.39592547 578.91376731 1.43130821 608.24194336 1.47583008 C606.93235269 4.85120156 605.57759112 7.68259254 603.47631836 10.63598633 C602.92314941 11.4193335 602.36998047 12.20268066 601.80004883 13.00976562 C600.90503662 14.26140503 600.90503662 14.26140503 599.99194336 15.53833008 C598.71835725 17.33770407 597.44492404 19.13718629 596.17163086 20.93676758 C595.51904297 21.85554688 594.86645508 22.77432617 594.1940918 23.72094727 C591.14741235 28.02043837 588.13362314 32.34276677 585.11694336 36.66333008 C580.35593606 43.46919661 575.57531845 50.26088072 570.78051758 57.04296875 C566.91820864 62.50935604 563.07742268 67.99059219 559.24194336 73.47583008 C554.43945636 80.34401563 549.61907736 87.19908172 544.78100586 94.04223633 C540.91857865 99.50889917 537.07759081 104.99035174 533.24194336 110.47583008 C528.43945636 117.34401563 523.61907736 124.19908172 518.78100586 131.04223633 C514.91857865 136.50889917 511.07759081 141.99035174 507.24194336 147.47583008 C502.43945636 154.34401563 497.61907736 161.19908172 492.78100586 168.04223633 C488.91857865 173.50889917 485.07759081 178.99035174 481.24194336 184.47583008 C476.43945636 191.34401563 471.61907736 198.19908172 466.78100586 205.04223633 C462.91857865 210.50889917 459.07759081 215.99035174 455.24194336 221.47583008 C450.43945636 228.34401563 445.61907736 235.19908172 440.78100586 242.04223633 C436.91857865 247.50889917 433.07759081 252.99035174 429.24194336 258.47583008 C424.43945636 265.34401563 419.61907736 272.19908172 414.78100586 279.04223633 C410.91857865 284.50889917 407.07759081 289.99035174 403.24194336 295.47583008 C398.43945636 302.34401563 393.61907736 309.19908172 388.78100586 316.04223633 C384.91857865 321.50889917 381.07759081 326.99035174 377.24194336 332.47583008 C372.43945636 339.34401563 367.61907736 346.19908172 362.78100586 353.04223633 C358.91857865 358.50889917 355.07759081 363.99035174 351.24194336 369.47583008 C346.43945636 376.34401563 341.61907736 383.19908172 336.78100586 390.04223633 C332.91857865 395.50889917 329.07759081 400.99035174 325.24194336 406.47583008 C320.43945636 413.34401563 315.61907736 420.19908172 310.78100586 427.04223633 C306.91857865 432.50889917 303.07759081 437.99035174 299.24194336 443.47583008 C294.43945636 450.34401563 289.61907736 457.19908172 284.78100586 464.04223633 C280.91857865 469.50889917 277.07759081 474.99035174 273.24194336 480.47583008 C268.43945636 487.34401563 263.61907736 494.19908172 258.78100586 501.04223633 C254.91857865 506.50889917 251.07759081 511.99035174 247.24194336 517.47583008 C242.43945636 524.34401563 237.61907736 531.19908172 232.78100586 538.04223633 C228.91857865 543.50889917 225.07759081 548.99035174 221.24194336 554.47583008 C216.43945636 561.34401563 211.61907736 568.19908172 206.78100586 575.04223633 C202.91857865 580.50889917 199.07759081 585.99035174 195.24194336 591.47583008 C190.92287521 597.65266335 186.59293596 603.82144161 182.24194336 609.97583008 C177.83155727 616.21567127 173.4373083 622.46662512 169.05444336 628.72583008 C168.50852539 629.50506836 167.96260742 630.28430664 167.40014648 631.0871582 C162.65615682 637.86670958 157.9520783 644.67230183 153.24194336 651.47583008 C220.89194336 651.47583008 288.54194336 651.47583008 358.24194336 651.47583008 C354.51101997 654.27402262 350.79961703 656.31661367 346.64428711 658.35473633 C345.89595108 658.72630356 345.14761505 659.09787079 344.37660217 659.48069763 C341.97942664 660.67041019 339.57966703 661.85478068 337.17944336 663.03833008 C327.66693793 667.73758904 318.18259265 672.4700804 308.80834961 677.44067383 C298.20729811 683.06070492 287.47010738 688.39522181 276.72143555 693.72583008 C267.67666292 698.21489908 258.66368369 702.74614376 249.74194336 707.47583008 C239.16303843 713.08402983 228.44761534 718.40637632 217.72143555 723.72583008 C208.67666292 728.21489908 199.66368369 732.74614376 190.74194336 737.47583008 C180.16303843 743.08402983 169.44761534 748.40637632 158.72143555 753.72583008 C149.67666292 758.21489908 140.66368369 762.74614376 131.74194336 767.47583008 C121.16303843 773.08402983 110.44761534 778.40637632 99.72143555 783.72583008 C87.4687801 789.80702394 75.32690946 796.06832958 63.24194336 802.47583008 C58.94252225 804.75161305 54.63041834 807.00087826 50.30444336 809.22583008 C49.27899414 809.76981445 48.25354492 810.31379883 47.19702148 810.87426758 C46.21282227 811.37700195 45.22862305 811.87973633 44.21459961 812.39770508 C42.91921265 813.0720459 42.91921265 813.0720459 41.59765625 813.76000977 C39.24194336 814.47583008 39.24194336 814.47583008 37.07519531 813.76977539 C34.2840661 811.79974145 32.39859062 809.17870004 30.36694336 806.47583008 C29.39039809 805.2049835 28.4138347 803.93415085 27.43725586 802.66333008 C26.92066406 801.9852832 26.40407227 801.30723633 25.87182617 800.60864258 C23.02078382 796.87785977 20.12789205 793.17962862 17.24194336 789.47583008 C16.04785146 787.93943507 14.85384027 786.40297733 13.65991211 784.86645508 C9.31641059 779.28212641 4.94504834 773.71989969 0.56860352 768.16137695 C-2.17025972 764.6815993 -4.90488194 761.19848696 -7.64038086 757.71606445 C-10.33507351 754.28593534 -13.03158042 750.8572489 -15.73046875 747.43041992 C-16.63003084 746.28617825 -17.52795983 745.14065096 -18.42431641 743.99389648 C-20.96944435 740.7385315 -23.5389239 737.50633475 -26.14086914 734.29614258 C-49.2696259 705.52825287 -63.36541943 674.49156102 -59.48999023 636.8737793 C-55.87698349 612.39016498 -42.76110272 591.28650465 -28.75805664 571.47583008 C-27.798308 570.11262853 -26.83867284 568.74934709 -25.87915039 567.38598633 C-23.89555773 564.57107896 -21.90789353 561.75909305 -19.91821289 558.94848633 C-16.55756563 554.19766221 -13.2186788 549.43174621 -9.88305664 544.66333008 C-9.29951416 543.82922607 -8.71597168 542.99512207 -8.11474609 542.13574219 C-6.32891339 539.58262653 -4.54342204 537.02927253 -2.75805664 534.47583008 C4.37596216 524.27270505 11.5163125 514.07454649 18.70336914 503.90869141 C22.56567808 498.44230411 26.40646404 492.96106796 30.24194336 487.47583008 C35.04443036 480.60764452 39.86480936 473.75257843 44.70288086 466.90942383 C48.56530806 461.44276099 52.40629591 455.96130842 56.24194336 450.47583008 C60.56101162 444.29899665 64.89097555 438.13023619 69.24194336 431.97583008 C73.75551712 425.58948967 78.25413577 419.19280549 82.74194336 412.78833008 C83.32975586 411.95043945 83.91756836 411.11254883 84.52319336 410.24926758 C87.48146591 406.0241422 90.40338631 401.78236639 93.24194336 397.47583008 C79.9122714 403.57584945 66.88663066 410.21441715 53.87451172 416.95629883 C45.07325609 421.51435138 36.24409471 426.00430286 27.36694336 430.41333008 C20.27917527 433.93557412 13.22586628 437.50185502 6.24194336 441.22583008 C-2.67347513 445.97918842 -11.71393454 450.47419398 -20.75805664 454.97583008 C-30.38861705 459.76940295 -39.99240379 464.58839085 -49.48071289 469.65942383 C-57.86861409 474.1150291 -66.38928606 478.30674689 -74.89190674 482.53762817 C-82.72467188 486.43687664 -90.53947094 490.35356515 -98.25805664 494.47583008 C-107.37379766 499.34427372 -116.6279163 503.92799337 -125.87927246 508.53131104 C-133.9663068 512.55701845 -142.03145637 516.60894858 -150.00805664 520.85083008 C-156.55988489 524.33075498 -163.1386808 527.75085236 -169.75805664 531.10083008 C-170.61431641 531.53959473 -171.47057617 531.97835937 -172.3527832 532.43041992 C-173.14652344 532.8295459 -173.94026367 533.22867188 -174.75805664 533.63989258 C-175.45930664 533.99519043 -176.16055664 534.35048828 -176.88305664 534.71655273 C-178.75805664 535.47583008 -178.75805664 535.47583008 -181.75805664 535.47583008 C-183.08569336 534.16918945 -183.08569336 534.16918945 -184.43774414 532.31958008 C-184.94781006 531.63476562 -185.45787598 530.94995117 -185.98339844 530.24438477 C-186.52778564 529.49576172 -187.07217285 528.74713867 -187.63305664 527.97583008 C-188.80147001 526.40651157 -189.97210073 524.83884189 -191.14477539 523.27270508 C-191.74338379 522.47155273 -192.34199219 521.67040039 -192.95874023 520.8449707 C-195.70131769 517.23384837 -198.56590304 513.72794905 -201.44555664 510.22583008 C-206.1770141 504.451538 -210.78406008 498.60127978 -215.31274414 492.66723633 C-217.84665607 489.34950369 -220.42472556 486.06763984 -223.00805664 482.78833008 C-223.45810059 482.21421387 -223.90814453 481.64009766 -224.37182617 481.04858398 C-226.95391825 477.75598939 -229.55601042 474.48130307 -232.17993164 471.22192383 C-253.98376832 443.94843727 -268.03317298 416.13998356 -265.75805664 380.47583008 C-263.01292317 356.11779215 -252.40165256 335.52904964 -238.41821289 315.82348633 C-235.16866884 311.22824874 -231.96913964 306.59798054 -228.75805664 301.97583008 C-227.3726855 299.98621505 -225.98726961 297.99663117 -224.60180664 296.00708008 C-221.47153611 291.50731619 -218.35742056 286.99692057 -215.25805664 282.47583008 C-210.09607201 274.94596258 -204.87809767 267.45544206 -199.66040039 259.96411133 C-195.8423414 254.47972678 -192.03653381 248.98755365 -188.25805664 243.47583008 C-183.09607201 235.94596258 -177.87809767 228.45544206 -172.66040039 220.96411133 C-168.8423414 215.47972678 -165.03653381 209.98755365 -161.25805664 204.47583008 C-156.09607201 196.94596258 -150.87809767 189.45544206 -145.66040039 181.96411133 C-141.41054778 175.85948433 -137.18182295 169.74118744 -132.97631836 163.60595703 C-128.97281029 157.7725066 -124.9280749 151.96804555 -120.88305664 146.16333008 C-115.97695838 139.12174439 -111.09369945 132.06598928 -106.25805664 124.97583008 C-100.74098932 116.88654657 -95.15690868 108.8451573 -89.55883789 100.81176758 C-85.77388677 95.37864892 -82.0018013 89.93741871 -78.25805664 84.47583008 C-73.09611012 76.94593675 -67.8780974 69.45544168 -62.66040039 61.96411133 C-58.84234122 56.47972652 -55.03656172 50.98753471 -51.25805664 45.47583008 C-46.10035893 37.95295107 -40.89146503 30.46598528 -35.67797852 22.98168945 C-35.04182617 22.06838867 -34.40567383 21.15508789 -33.75024414 20.21411133 C-33.12297393 19.34977069 -32.49570372 18.48543005 -31.84942532 17.59489727 C-29.68565611 14.52285294 -29.68565611 14.52285294 -28.12922001 11.1235857 C-21.53687742 -1.2207061 -12.95370666 -0.31366382 0 0 Z " fill="#FFFFFF" transform="translate(307.758056640625,71.524169921875)"/>
</svg>
