<svg viewBox="13.330865822784808 0 302.071746835443 254.02964" xmlns="http://www.w3.org/2000/svg" id="Layer_1" style="max-height: 500px" width="302.071746835443" height="254.02964"><defs><style>.cls-1{fill:#252525;}</style></defs><path d="M218.75,5.08c-9.97,2.76-36.19,9.86-58.27,15.84-22.08,5.93-40.38,11.09-40.74,11.4-.36.36-3.02,7.26-5.93,15.44l-5.32,14.82,14.16.26,14.21.26-1.94,6.64c-1.07,3.63-4.29,14.92-7.16,25.04-9.1,32.1-36.29,127.62-37.31,131.1-2.2,7.41-2.45,8.69-2.15,8.79.2.1,22.28.05,49.12-.1l48.76-.26,1.99-7.16c4.8-17.38,5.67-20.5,5.88-21.11.2-.46-6.59-.61-33.02-.61-18.3,0-33.27-.1-33.27-.2s.72-2.56,1.53-5.47c2.45-8.43,2.86-9.97,5.37-18.86,1.28-4.65,2.81-9.92,3.32-11.76,1.53-5.21,2.76-9.61,6.34-22.23,1.84-6.49,7.56-26.73,12.78-44.98,13.6-47.89,14.62-51.57,14.62-52.18,0-.51,21.67-6.34,23.41-6.34.36,0,.56.2.41.41-.15.26-.97,2.96-1.79,6.03-2.56,9.4-11.7,42.68-12.78,46.46-1.89,6.75-6.24,22.49-11.65,42.17-9.2,33.73-11.91,43.7-11.91,44.11,0,.2,6.95.31,15.44.26l15.44-.15.36-1.28c.2-.72,1.99-7.26,4.04-14.57,1.99-7.31,5.37-19.52,7.51-27.09,2.1-7.62,4.14-14.98,4.5-16.36,1.07-4.04,10.53-38.03,16.1-58.01,1.38-4.91,3.78-13.65,5.37-19.42,3.37-12.22,6.03-21.77,9.46-34.24C239.1-.69,238.99-.03,237.87.02c-.56.05-9.15,2.3-19.12,5.06Z" class="cls-1"/><path d="M86.79,259.87c-9.66,2.45-14.41,8.38-16.66,20.7-1.28,7.21-1.28,46.1.05,53,2.15,11.65,6.54,17.43,15.18,20.14,3.83,1.18,14.26,1.48,18.6.46,5.88-1.33,11.3-5.21,13.6-9.71,2.66-5.21,3.17-8.94,3.42-24.69.15-8.08.1-15.49-.05-16.46l-.36-1.79-12.32.1-12.32.15-1.94,5.37c-1.07,2.96-1.94,5.67-1.94,5.98-.05.51,1.74.66,7.36.66h7.41v7.51c0,11.65-1.12,16.46-4.24,18.76-1.23.92-2.2,1.07-6.64,1.07-6.34,0-7.82-.61-9.4-3.83-1.89-3.78-2.3-10.99-2.04-34.19.15-15.95.41-21.42.97-23.56,1.48-5.62,2.96-6.64,9.51-6.64,3.88,0,4.8.15,6.29,1.18.97.61,2.04,1.84,2.45,2.66.92,1.94,1.74,9.46,1.43,13.39-.15,1.79-.05,3.22.15,3.22.26,0,3.58-1.48,7.46-3.32l7-3.32-.31-5.01c-.61-11.04-5.01-17.84-13.6-21.11-3.73-1.43-14.62-1.84-19.06-.72h0Z" class="cls-1"/><path d="M268.59,262.42c-6.18,1.84-11.6,3.48-12.01,3.73-.56.36-2.91,8.38-3.07,10.43,0,.26,2.66.41,5.88.41h5.88v76.67h14.82v-47.28c0-26.02-.05-47.28-.1-47.23-.1,0-5.21,1.48-11.4,3.27Z" class="cls-1"/><path d="M.36,260.48c-.2.15-.36,21.21-.36,46.77v46.41h35.57l1.58-6.64,1.53-6.64H14.82v-80.24h-7.05c-3.88,0-7.26.15-7.41.36Z" class="cls-1"/><path d="M44.82,260.43c-.2.2-.36,21.26-.36,46.82v46.41h15.33l-.1-46.66-.15-46.61-7.21-.15c-3.94-.05-7.31.05-7.51.2Z" class="cls-1"/><path d="M130.54,260.79c-.1.36-.15,18.5-.1,40.28.15,36.24.26,39.76,1.07,42.27,1.33,3.94,2.76,6.08,5.37,8.08,3.53,2.66,6.9,3.48,13.65,3.12,3.07-.15,6.13-.46,6.8-.72.82-.31,2.3-2.45,4.5-6.34l3.27-5.83v12.01h15.33l-.1-46.66-.15-46.61h-14.82l-.15,39.15-.1,39.2-1.43.56c-2.15.87-6.59,1.58-9.92,1.58-3.53,0-6.18-.97-7.16-2.66-.51-.92-.72-8.89-.92-39.51l-.26-38.33-7.31-.15c-5.78-.1-7.36,0-7.56.56h0Z" class="cls-1"/><path d="M191,260.48c-.2.15-.36,21.21-.36,46.77v46.41h37.21l.82-3.73c.46-1.99,1.18-5.01,1.58-6.59l.66-2.96h-25.45v-29.13h16.15l1.38-6.03c.77-3.27,1.38-6.29,1.38-6.64,0-.46-2.25-.61-9.46-.61h-9.46v-24.28l12.01.1c11.09.1,12.01.05,12.01-.77-.05-.46-.72-3.53-1.48-6.75l-1.48-5.88-17.58-.15c-9.66-.05-17.74.05-17.94.26Z" class="cls-1"/></svg>