<?xml version="1.0" standalone="no"?>
<!DOCTYPE svg PUBLIC "-//W3C//DTD SVG 20010904//EN"
 "http://www.w3.org/TR/2001/REC-SVG-20010904/DTD/svg10.dtd">
<svg version="1.0" xmlns="http://www.w3.org/2000/svg"
 width="991.000000pt" height="1015.000000pt" viewBox="0 0 991.000000 1015.000000"
 preserveAspectRatio="xMidYMid meet">

<g transform="translate(0.000000,1015.000000) scale(0.100000,-0.100000)"
fill="#000000" stroke="none">
<path d="M0 5075 l0 -5075 4955 0 4955 0 0 5075 0 5075 -4955 0 -4955 0 0
-5075z m4432 4105 c101 -168 431 -696 441 -707 9 -9 49 29 167 159 85 94 229
253 319 352 229 253 252 278 257 273 3 -2 16 -168 29 -368 14 -200 29 -391 33
-423 l7 -59 81 99 c96 118 281 305 381 387 38 31 73 57 76 57 3 0 -7 -30 -22
-67 -45 -106 -97 -272 -126 -398 -29 -129 -75 -413 -75 -462 0 -17 -3 -34 -8
-37 -4 -2 -51 6 -104 19 -464 112 -1019 138 -1478 70 -390 -58 -746 -171
-1138 -361 -97 -46 -176 -83 -177 -82 -1 2 -27 73 -59 158 -94 254 -260 574
-368 713 -16 20 -24 37 -18 37 14 0 126 -58 229 -118 97 -57 228 -146 325
-221 44 -33 81 -59 83 -57 4 4 -9 88 -92 615 -19 123 -34 225 -33 227 3 2 124
-81 648 -445 129 -90 240 -165 247 -168 7 -3 16 10 21 29 6 18 74 219 151 446
78 228 141 417 141 420 0 11 16 -12 62 -88z m922 -1329 c98 -49 231 -156 374
-299 111 -113 132 -130 132 -109 0 54 -32 201 -60 278 -16 46 -29 84 -27 85 6
7 382 -119 483 -161 195 -82 418 -217 541 -330 67 -61 72 -72 94 -205 17 -111
51 -218 123 -395 36 -87 64 -160 62 -162 -2 -3 -30 20 -62 50 -243 225 -510
420 -780 567 -71 38 -131 70 -134 70 -3 0 -15 -48 -26 -107 -21 -108 -52 -203
-77 -237 -12 -17 -29 -8 -218 117 -226 150 -499 305 -553 314 -64 10 -362 -62
-550 -134 -129 -48 -293 -133 -405 -209 -105 -70 -158 -111 -151 -117 3 -1 40
-34 83 -71 l77 -69 -53 -22 c-83 -34 -185 -92 -262 -149 -66 -50 -225 -203
-225 -217 0 -3 59 -16 131 -27 72 -12 137 -26 145 -33 8 -6 14 -24 14 -40 0
-50 49 -184 91 -250 114 -175 329 -309 546 -339 49 -6 225 -10 459 -8 403 3
485 -4 644 -52 35 -11 66 -17 68 -15 16 16 -477 499 -543 532 -27 14 -114 22
-350 33 -274 12 -366 39 -578 167 -68 41 -69 39 46 125 158 117 373 205 477
195 87 -8 354 -125 483 -212 28 -19 55 -35 59 -35 4 0 40 22 80 49 40 26 91
55 113 63 49 19 125 32 125 22 0 -4 -13 -28 -29 -53 -66 -103 -91 -198 -68
-259 14 -39 493 -542 515 -542 9 0 50 12 91 26 200 70 537 73 744 8 43 -14 83
-24 89 -22 14 5 -162 171 -326 308 -138 115 -138 115 -253 289 -116 176 -131
201 -118 201 17 0 155 -76 221 -122 l73 -50 58 45 c70 54 153 97 188 97 20 0
33 -12 64 -60 37 -57 81 -165 81 -199 0 -8 -23 -36 -52 -62 l-52 -48 110 -117
c60 -64 121 -131 136 -148 14 -17 28 -29 31 -26 3 3 11 49 18 103 7 53 16 97
19 97 17 -1 246 -373 345 -565 416 -798 519 -1620 309 -2480 -25 -104 -98
-345 -103 -345 -4 0 -71 73 -151 161 l-145 162 -8 -54 c-53 -372 -123 -623
-252 -909 -134 -296 -325 -568 -569 -811 -174 -174 -487 -423 -506 -403 -4 5
-33 110 -65 234 -31 124 -58 226 -60 228 -1 2 -54 -29 -116 -69 -368 -232
-777 -382 -1214 -445 -169 -25 -567 -25 -720 -1 -247 39 -494 115 -699 217
l-111 55 0 45 c1 25 19 151 42 280 57 320 74 467 80 721 7 282 -12 502 -68
759 -22 101 -58 240 -66 253 -3 4 -35 -36 -72 -90 -312 -454 -590 -774 -903
-1037 -36 -31 -71 -56 -77 -56 -6 0 -31 40 -55 88 -110 220 -187 528 -233 932
-25 223 -25 778 0 975 10 77 24 169 32 205 7 36 12 67 10 69 -2 2 -143 -39
-312 -91 -276 -85 -308 -93 -311 -77 -6 32 48 325 88 482 111 434 296 833 565
1217 48 67 84 124 81 127 -3 4 -86 19 -183 36 -98 16 -180 31 -182 33 -5 5
103 205 168 309 160 260 305 441 540 675 158 158 408 376 419 365 2 -2 -8 -39
-22 -83 -33 -105 -50 -238 -42 -329 19 -203 112 -397 242 -505 51 -42 104 -73
104 -61 0 3 -18 51 -40 104 -60 147 -83 253 -83 389 -1 189 42 310 147 416 87
86 145 108 291 108 118 -1 184 -18 319 -86 32 -16 60 -27 63 -24 12 12 -12 71
-51 123 -70 95 -208 194 -339 243 -37 14 -67 27 -67 30 0 9 318 140 462 191
258 91 630 168 903 188 72 5 240 8 374 6 l245 -4 60 -30z"/>
<path d="M5967 5305 c-177 -61 -416 -186 -602 -314 -141 -97 -235 -171 -235
-187 0 -8 29 -70 65 -137 260 -493 314 -591 331 -600 10 -6 50 -10 89 -8 189
6 502 170 833 436 73 59 137 118 143 132 14 39 12 446 -3 465 -7 9 -40 28 -73
41 -75 32 -207 104 -294 163 -82 55 -117 56 -254 9z"/>
<path d="M7190 5301 c-90 -57 -287 -197 -297 -209 -17 -21 -18 -463 -1 -495 6
-12 41 -54 78 -94 94 -101 171 -205 220 -295 23 -43 45 -78 49 -78 13 0 55
105 85 210 63 228 39 577 -59 861 -20 57 -40 107 -43 110 -4 4 -18 -1 -32 -10z"/>
<path d="M6559 4111 c-51 -5 -66 -14 -170 -92 -253 -192 -442 -295 -602 -329
-32 -6 -57 -16 -57 -22 0 -18 219 -425 236 -439 13 -10 30 -8 102 16 156 50
335 147 435 235 21 18 40 30 44 27 3 -3 18 -119 34 -258 16 -138 31 -254 34
-257 9 -10 87 53 147 118 126 136 217 303 274 499 28 98 30 129 8 202 -32 107
-134 277 -179 297 -27 12 -203 14 -306 3z"/>
</g>
</svg>
